PathFileType	4	(X/Y/Z)	C:/Users/opensim2020/Desktop/walking_exp_matlab/subject06_walking23_straight_01.trc																																																																																																																																					
DataRate	CameraRate	NumFrames	NumMarkers	Units	OrigDataRate	OrigDataStartFrame	OrigNumFrames																																																																																																																																	
100	100	9	45	mm	100	817	106																																																																																																																																	
Frame#	Time	LFHD			RFHD			LBHD			RBHD			C7			T10			CLAV			STRN			RBAK			LSHO			LUPA			LELB			LFRM			LWRA			LWRB			LFIN			RSHO			RUPA			RELB			RFRM			RWRA			RWRB			RFIN			LASI			RASI			LPSI			RPSI			LTHI			LKNE			LTIB			LANK			LHEE			LTOE			RTHI			RKNE			RTIB			RANK			RHEE			RTOE			*39			*40			*41			*42			*43			*44		
		X1	Y1	Z1	X2	Y2	Z2	X3	Y3	Z3	X4	Y4	Z4	X5	Y5	Z5	X6	Y6	Z6	X7	Y7	Z7	X8	Y8	Z8	X9	Y9	Z9	X10	Y10	Z10	X11	Y11	Z11	X12	Y12	Z12	X13	Y13	Z13	X14	Y14	Z14	X15	Y15	Z15	X16	Y16	Z16	X17	Y17	Z17	X18	Y18	Z18	X19	Y19	Z19	X20	Y20	Z20	X21	Y21	Z21	X22	Y22	Z22	X23	Y23	Z23	X24	Y24	Z24	X25	Y25	Z25	X26	Y26	Z26	X27	Y27	Z27	X28	Y28	Z28	X29	Y29	Z29	X30	Y30	Z30	X31	Y31	Z31	X32	Y32	Z32	X33	Y33	Z33	X34	Y34	Z34	X35	Y35	Z35	X36	Y36	Z36	X37	Y37	Z37	X38	Y38	Z38	X39	Y39	Z39	X40	Y40	Z40	X41	Y41	Z41	X42	Y42	Z42	X43	Y43	Z43	X44	Y44	Z44	X45	Y45	Z45
																																																																																																																																								
80	0.79	219.46486	1632.69287	1348.75232	228.51414	1630.98633	1480.95105	84.99548	1582.79895	1362.19702	95.33735	1586.03418	1491.42456	84.56131	1425.31531	1423.99683	54.68849	1094.68164	1438.66101	195.78578	1349.60693	1428.27979	239.77364	1175.79321	1431.31677	12.35964	1256.03638	1508.36316	138.52585	1374.07397	1264.35828	90.50767	1178.15381	1198.99109	54.05484	1071.09253	1193.96313	32.66376	922.41968	1172.76318	58.3728	794.2804	1213.82043	-1.95091	808.4472	1176.78271	8.20642	717.00409	1180.59424	146.38515	1389.03003	1587.53564	95.2907	1202.00964	1687.93665	103.91899	1083.96216	1709.04565	160.96346	982.26001	1721.37354	271.30759	889.51434	1674.76587	228.41383	863.72418	1718.44617	296.15485	814.95966	1711.28906	251.21359	945.97583	1348.94629	217.22336	940.29944	1563.02649	89.38206	967.07153	1351.83459	71.13116	963.70282	1518.37036	266.49689	641.57489	1284.3623	320.44925	491.90662	1324.00122	327.56732	234.32822	1338.59607	339.17874	67.08245	1390.57068	297.30179	55.50473	1436.69336	481.53552	43.26439	1399.65686	123.13132	604.5119	1618.97913	114.45087	476.556	1610.67493	-90.16413	316.26599	1572.02051	-231.64267	210.36818	1508.08862	-254.79208	233.88396	1457.34399	-209.87273	52.2852	1506.33081	124.59222	1678.22839	1412.11169	NaN	NaN	NaN	NaN	NaN	NaN	NaN	NaN	NaN	NaN	NaN	NaN	NaN	NaN	NaN
81	0.8	233.82777	1634.22974	1347.50781	242.67644	1633.12427	1479.75073	99.70532	1583.40662	1360.98914	109.82681	1587.21033	1490.16187	99.84525	1426.29309	1422.80505	70.2308	1096.16199	1438.87329	211.31042	1351.00928	1428.04883	255.46614	1177.10437	1431.36353	27.72602	1257.11487	1507.29858	155.39223	1374.9751	1263.76538	109.48812	1178.55505	1197.94861	73.77737	1071.35303	1192.33716	54.12138	922.44568	1170.85425	80.74903	794.56927	1212.28369	20.63891	808.22394	1174.4292	31.72642	716.78253	1178.74219	161.05286	1390.69556	1586.88708	108.28318	1203.87476	1686.58972	116.13701	1085.35693	1707.15417	170.51178	981.84119	1720.30212	278.55252	885.56134	1674.76855	234.36906	861.22974	1718.09045	300.69553	810.43518	1711.91333	266.31531	947.86139	1347.75952	233.17206	941.05988	1562.33728	103.96994	968.48657	1352.71704	86.89448	963.82208	1519.32886	281.0007	643.1275	1284.37354	333.50778	492.94345	1324.78333	335.91925	234.73201	1339.34119	340.27786	67.33129	1391.23169	297.93854	55.9998	1436.97278	482.63083	42.42137	1400.45325	146.2578	603.92358	1619.70752	141.28188	475.96945	1611.63721	-63.90491	319.48764	1574.59412	-208.00504	217.23849	1510.83716	-227.90587	243.34604	1460.19275	-199.45755	56.63553	1506.25867	138.40269	1679.31335	1410.57178	NaN	NaN	NaN	NaN	NaN	NaN	NaN	NaN	NaN	NaN	NaN	NaN	NaN	NaN	NaN
82	0.81	248.15715	1635.94116	1346.35864	256.9249	1635.53357	1478.55981	114.43073	1584.26624	1359.86316	124.35075	1588.71057	1489.11926	115.1157	1428.01733	1421.96851	85.5054	1097.95911	1438.79309	226.68951	1352.78955	1427.91248	270.82092	1178.68494	1431.36646	42.80452	1258.80823	1506.57251	172.13745	1376.28394	1263.17993	128.5937	1179.00281	1197.17957	94.01246	1071.60913	1190.59717	76.30254	922.4577	1168.94543	103.86856	794.84448	1210.72559	44.06062	807.80688	1172.13	56.2436	716.53003	1176.66028	175.80643	1392.44739	1586.48926	121.40858	1205.6261	1685.45105	128.22267	1086.65125	1705.36621	179.85321	981.38721	1719.20374	285.2233	881.47186	1675.06921	239.88481	858.74518	1717.90942	304.59641	805.82611	1712.60535	280.97601	949.73492	1346.40417	248.78181	942.1192	1561.77307	118.45215	969.73914	1353.43091	102.1981	964.22858	1520.11206	294.4057	643.90167	1284.69214	345.51447	493.39056	1325.68689	342.29193	234.69218	1340.81226	341.28186	67.6899	1391.77942	298.43738	56.50253	1437.30139	483.5101	41.84611	1401.30359	169.65187	603.68677	1619.98633	168.57834	475.99817	1611.94727	-36.04917	321.41901	1577.1925	-182.65358	222.72411	1513.91211	-199.66829	250.60255	1463.53967	-185.11168	60.80725	1506.56396	152.34908	1680.71094	1409.02136	NaN	NaN	NaN	NaN	NaN	NaN	NaN	NaN	NaN	NaN	NaN	NaN	NaN	NaN	NaN
83	0.82	262.23053	1637.75146	1345.32764	271.28961	1638.14771	1477.3905	129.0564	1585.49487	1358.93213	138.93446	1590.60486	1488.15051	130.57063	1430.24353	1421.1781	100.53064	1100.04053	1438.38062	241.9261	1354.68298	1427.7511	285.80133	1180.38794	1431.29883	57.50153	1261.1239	1506.06799	188.64439	1377.80066	1262.73462	147.65471	1179.70325	1196.07446	114.88398	1071.99854	1189.04663	99.01347	922.6319	1167.12292	128.26505	795.4024	1208.77783	68.55573	807.56451	1169.77246	81.90191	716.48517	1174.26563	190.70247	1394.27722	1586.17676	134.74812	1207.3053	1684.39783	140.16656	1087.93481	1703.67957	189.07362	980.97388	1718.18628	291.68744	877.51367	1675.17908	244.95749	856.31525	1717.74023	307.91763	801.21686	1713.27942	295.09756	951.59814	1345.09155	264.13962	943.62115	1561.31226	132.61887	971.21588	1353.93481	117.14689	965.09015	1520.69153	306.34604	643.99591	1284.9303	356.19858	493.24579	1326.44092	346.3624	234.72913	1341.8075	341.68393	67.87716	1392.16577	298.51245	56.66452	1437.43542	484.03845	41.52709	1401.88013	193.01419	604.08795	1619.76196	195.75012	476.70627	1611.72656	-7.13926	321.73752	1579.91235	-156.67542	226.99979	1517.06726	-173.75266	255.64565	1466.90247	-163.67072	65.04202	1508.11816	166.3905	1682.39136	1407.65417	NaN	NaN	NaN	NaN	NaN	NaN	NaN	NaN	NaN	NaN	NaN	NaN	NaN	NaN	NaN
84	0.83	276.89084	1639.86597	1344.23047	285.67358	1640.828	1476.36011	143.73763	1587.00366	1358.14624	153.60863	1592.73987	1487.30994	146.00951	1432.80579	1420.60486	115.43015	1102.41553	1437.82922	256.95911	1356.8075	1427.73328	300.55734	1182.36523	1431.16724	72.19684	1263.80005	1505.49097	204.99995	1379.59595	1262.37927	167.09085	1180.55188	1195.48596	135.58217	1072.55994	1187.28076	122.57564	922.96808	1165.31506	151.47635	796.27301	1208.50195	93.64539	807.53333	1167.38574	108.46362	716.71619	1171.81897	205.61293	1396.20532	1585.98975	148.258	1209.06311	1683.42151	152.22264	1089.25684	1702.27637	198.05122	980.53522	1717.15906	297.48822	873.2782	1675.3562	249.61745	853.96436	1717.61108	310.67111	796.81464	1714.26147	308.93317	953.55743	1344.07947	279.17322	945.47601	1560.90771	146.98561	972.86133	1354.16296	131.87891	966.46991	1521.07251	317.48227	644.19843	1285.82739	365.39606	492.72061	1326.87671	349.11526	234.84494	1341.75671	341.76566	68.01321	1392.50391	298.41284	56.87208	1437.73621	484.27377	41.28573	1402.07739	216.16229	605.09033	1619.12646	222.50545	478.08478	1611.13586	21.3344	321.31802	1582.86646	-131.21394	230.57242	1519.77075	-151.27818	258.85855	1470.11804	-131.83658	69.46701	1511.68872	180.66852	1684.31616	1406.42285	NaN	NaN	NaN	NaN	NaN	NaN	NaN	NaN	NaN	NaN	NaN	NaN	NaN	NaN	NaN
85	0.84	291.32419	1641.91187	1343.41638	300.14203	1643.46619	1475.4812	158.39474	1588.75195	1357.49817	168.18898	1594.99805	1486.69019	161.25789	1435.28418	1420.12476	129.98254	1104.95093	1437.2041	271.85413	1359.05273	1427.68274	315.17563	1184.45667	1431.09717	86.6125	1266.75928	1504.90259	220.94366	1381.69641	1262.09241	186.34135	1181.91174	1194.52148	157.08412	1073.32507	1185.99524	146.63545	923.63654	1163.60181	177.51677	797.59558	1206.22998	119.48643	807.75134	1165.02417	136.14442	717.14929	1169.24402	220.42557	1398.23657	1585.82043	161.88499	1210.89563	1682.48804	164.42987	1090.61377	1700.95093	206.75337	980.14777	1716.08411	302.60315	868.97406	1675.67603	253.89543	851.83289	1717.42639	312.76715	792.40479	1714.87024	322.67957	955.58575	1343.43335	293.8808	947.86041	1560.60083	161.2896	974.74689	1354.15735	146.19519	968.37891	1521.1936	328.22281	644.74512	1286.31128	373.36206	492.30603	1327.13611	351.26389	235.33009	1341.78223	341.74765	68.23869	1392.74841	298.24014	56.81374	1437.92249	484.18951	41.03901	1402.27454	238.84676	606.66077	1618.17542	248.92838	480.00436	1610.05054	49.02998	321.9939	1584.3999	-104.72516	232.92033	1522.74268	-129.57504	259.64505	1473.71045	-94.67698	72.22276	1515.55542	194.99895	1686.38342	1405.38367	NaN	NaN	NaN	NaN	NaN	NaN	NaN	NaN	NaN	NaN	NaN	NaN	NaN	NaN	NaN
86	0.85	305.87079	1644.10706	1342.74438	314.70358	1646.0697	1474.73743	173.05841	1590.70325	1356.96582	182.88336	1597.3302	1486.11572	175.88712	1437.64783	1419.71594	144.36458	1107.50708	1436.68335	286.55563	1361.30615	1427.52979	329.63806	1186.75073	1431.03345	101.11515	1269.59851	1504.07568	236.48222	1384.04529	1261.89124	205.70193	1183.42041	1194.08252	178.13065	1074.55078	1184.4917	171.14128	924.66547	1162.02271	202.33154	799.03668	1206.13477	146.15648	808.37018	1162.65833	164.2641	718.51624	1166.75598	235.11594	1400.40344	1585.57629	175.54149	1212.90796	1681.59448	176.72395	1092.08862	1699.70483	215.63477	979.98022	1715.07751	307.57697	865.05951	1675.86633	257.72037	849.95007	1717.31787	314.3736	788.24133	1715.40942	336.69116	957.75726	1343.15356	308.28101	950.54559	1560.51514	175.54361	977.00262	1354.01184	160.72578	970.51904	1521.0022	338.36093	645.52722	1286.9762	380.08594	491.9808	1327.21216	353.06558	235.90616	1342.11731	341.9873	68.57836	1392.94519	298.1532	56.9244	1437.97192	484.32974	40.9557	1402.36414	261.32104	608.73029	1617.0459	275.35556	482.56091	1608.41406	76.80397	324.85284	1584.77051	-76.75423	233.82335	1525.59058	-106.01978	258.16602	1477.64648	-55.32822	74.45036	1519.96228	209.39275	1688.60034	1404.58228	NaN	NaN	NaN	NaN	NaN	NaN	NaN	NaN	NaN	NaN	NaN	NaN	NaN	NaN	NaN
87	0.86	320.37195	1646.3822	1342.25903	329.30307	1648.65332	1474.14868	187.67793	1592.96484	1356.51929	197.59895	1599.78076	1485.63293	190.52791	1440.0481	1419.38501	158.644	1110.28772	1436.1167	301.16458	1363.77039	1427.48792	343.9184	1189.08875	1430.83777	115.35741	1272.42651	1503.19763	251.8661	1386.62256	1261.74597	224.75201	1185.43787	1193.20618	199.61192	1076.04407	1183.19055	196.05432	926.17535	1160.32361	228.35977	800.90192	1205.172	173.05933	809.37341	1160.5072	193.43178	720.04755	1164.34705	249.51314	1402.66565	1585.33325	189.12854	1215.06238	1680.66333	189.22829	1093.70117	1698.43896	224.29362	979.98486	1714.12512	312.08884	861.24139	1675.99744	261.36441	848.29279	1717.02332	315.44211	784.39142	1715.81128	350.73212	959.7699	1343.05908	322.55728	953.62756	1560.60242	189.79939	979.40228	1353.70374	174.96814	973.06683	1520.56775	347.55096	646.37073	1287.47925	386.1398	491.72629	1327.17126	354.93387	236.15457	1342.6615	341.8967	68.63333	1393.25391	298.09985	57.11349	1438.14856	484.57394	40.89408	1402.37585	283.50919	611.31171	1615.80298	301.90271	485.69757	1606.59497	105.44955	327.17554	1584.78687	-47.02911	232.35242	1529.05615	-79.75198	254.87379	1481.79785	-15.8223	75.52126	1524.05176	223.99091	1690.97363	1403.96167	NaN	NaN	NaN	NaN	NaN	NaN	NaN	NaN	NaN	NaN	NaN	NaN	NaN	NaN	NaN
88	0.87	334.98599	1648.69202	1341.90186	343.97461	1651.13184	1473.71118	202.36757	1595.41431	1356.18799	212.13733	1602.35437	1485.37695	205.0305	1442.54968	1419.11011	172.98656	1112.92322	1435.50928	315.57877	1366.22815	1427.33777	358.1528	1191.51843	1430.62573	129.65587	1275.16663	1502.23877	266.84219	1389.31934	1261.70581	243.56963	1187.67151	1192.63306	220.86072	1077.79797	1181.99817	220.97487	927.85742	1159.03955	255.2429	803.32623	1204.10461	200.78661	810.68848	1158.36133	223.222	722.02124	1162.02368	263.64664	1405.02539	1585.07434	202.74228	1217.22217	1679.77673	201.87875	1095.44727	1697.16846	232.92665	980.24213	1713.18958	316.19183	857.97394	1676.02478	264.65485	847.13763	1716.94446	316.11493	780.99847	1716.16895	364.61087	961.66669	1342.99609	336.65317	956.73499	1560.59009	204.0836	981.83575	1353.25623	189.24167	975.83435	1520.04407	356.65198	647.41211	1287.95593	391.84229	491.52139	1327.19666	356.37811	236.16087	1342.47327	341.89362	68.80009	1393.48303	297.98651	57.28723	1438.30212	484.67615	40.88239	1402.53943	305.48657	614.34827	1614.63428	328.09137	489.51855	1604.30481	135.52652	327.75983	1585.52771	-16.23975	228.81375	1532.32361	-51.90311	249.87769	1485.3302	23.61664	75.57327	1527.98975	238.65031	1693.44165	1403.54932	NaN	NaN	NaN	NaN	NaN	NaN	NaN	NaN	NaN	NaN	NaN	NaN	NaN	NaN	NaN
